<svg width="24" height="24" viewBox="0 0 24 24" fill="none" xmlns="http://www.w3.org/2000/svg">
<rect width="24" height="24" fill="white" fill-opacity="0.01"/>
<path d="M11.9999 10.586L6.70692 5.29299C6.51832 5.11083 6.26571 5.01004 6.00352 5.01232C5.74132 5.01459 5.49051 5.11976 5.3051 5.30517C5.11969 5.49058 5.01452 5.74139 5.01224 6.00359C5.00997 6.26579 5.11076 6.51839 5.29292 6.70699L10.5859 12L5.29292 17.293C5.11076 17.4816 5.00997 17.7342 5.01224 17.9964C5.01452 18.2586 5.11969 18.5094 5.3051 18.6948C5.49051 18.8802 5.74132 18.9854 6.00352 18.9877C6.26571 18.9899 6.51832 18.8891 6.70692 18.707L11.9999 13.414L17.2929 18.707C17.4815 18.8891 17.7341 18.9899 17.9963 18.9877C18.2585 18.9854 18.5093 18.8802 18.6947 18.6948C18.8801 18.5094 18.9853 18.2586 18.9876 17.9964C18.9899 17.7342 18.8891 17.4816 18.7069 17.293L13.4139 12L18.7069 6.70699C18.8024 6.61474 18.8786 6.5044 18.931 6.38239C18.9834 6.26039 19.011 6.12917 19.0122 5.99639C19.0133 5.86361 18.988 5.73193 18.9377 5.60904C18.8875 5.48614 18.8132 5.37449 18.7193 5.28059C18.6254 5.1867 18.5138 5.11245 18.3909 5.06217C18.268 5.01189 18.1363 4.98659 18.0035 4.98774C17.8707 4.98889 17.7395 5.01648 17.6175 5.06889C17.4955 5.1213 17.3852 5.19748 17.2929 5.29299L11.9999 10.586Z" fill="#344563"/>
</svg>
